Coordinates
version=1
nRows=9
nColumns=60
inDegrees=yes

Units are S.I. units (second, meters, Newtons, ...)
If the header above contains a line with 'inDegrees', this indicates whether rotational values are in degrees (yes) or radians (no).

endheader
time	pelvis_tilt	pelvis_list	pelvis_rotation	pelvis_tx	pelvis_ty	pelvis_tz	hip_flexion_r	hip_adduction_r	hip_rotation_r	knee_angle_r_beta	knee_angle_r	ankle_angle_r	subtalar_angle_r	mtp_angle_r	hip_flexion_l	hip_adduction_l	hip_rotation_l	knee_angle_l_beta	knee_angle_l	ankle_angle_l	subtalar_angle_l	mtp_angle_l	L5_S1_Flex_Ext	L5_S1_Lat_Bending	L5_S1_axial_rotation	L4_L5_Flex_Ext	L4_L5_Lat_Bending	L4_L5_axial_rotation	L3_L4_Flex_Ext	L3_L4_Lat_Bending	L3_L4_axial_rotation	L2_L3_Flex_Ext	L2_L3_Lat_Bending	L2_L3_axial_rotation	L1_L2_Flex_Ext	L1_L2_Lat_Bending	L1_L2_axial_rotation	L1_T12_Flex_Ext	L1_T12_Lat_Bending	L1_T12_axial_rotation	Abs_r3	Abs_r2	Abs_r1	Abs_t1	Abs_t2	arm_flex_r	arm_add_r	arm_rot_r	elbow_flex_r	pro_sup_r	wrist_flex_r	wrist_dev_r	arm_flex_l	arm_add_l	arm_rot_l	elbow_flex_l	pro_sup_l	wrist_flex_l	wrist_dev_l
    104.68000000	      0.60987718	      6.66704654	     90.98096196	      0.40325151	      0.94095803	      0.30300668	      3.89762340	     -4.36191015	      0.37488471	      0.23493058	    -13.46053088	      5.18532491	      0.00000000	      0.00000000	      3.69426805	     -6.06651352	     -2.54395803	      0.20445200	    -11.71423660	      5.88188147	      0.00000000	      0.00000000	     -6.41746583	      0.11141037	     -0.04106766	    -11.91787580	      0.14817579	     -0.04363439	    -10.54325462	      0.27088317	     -0.04363439	     -7.33452170	      0.27088317	     -0.03593421	     -5.95925877	      0.22718803	     -0.03336748	     -3.66693998	      0.17257466	     -0.03080075	    -45.83931670	      1.26029639	     -0.22840602	      0.00000000	      0.00000000	     46.62465767	    -27.30101483	     10.78104715	     80.10823557	     61.77987126	      8.78646793	     17.28122984	     49.10608300	    -24.44782946	     13.78324447	     74.27700978	     58.62491417	     12.39586510	     14.19712240
    104.69000000	      0.60799358	      7.11752150	     90.98161328	      0.40282628	      0.94150153	      0.30154652	      3.32346308	     -4.38130792	      0.38219061	      0.23579508	    -13.51006287	      5.23414410	      0.00000000	      0.00000000	      3.10699651	     -6.04713161	     -2.51836044	      0.20518159	    -11.75603903	      5.98523306	      0.00000000	      0.00000000	     -6.43574966	      0.11019772	     -0.07121365	    -11.95183069	      0.14656297	     -0.07566450	    -10.57329311	      0.26793474	     -0.07566450	     -7.35541828	      0.26793474	     -0.06231194	     -5.97623713	      0.22471519	     -0.05786109	     -3.67738735	      0.17069627	     -0.05341023	    -45.96991623	      1.24657867	     -0.39606893	      0.00000000	      0.00000000	     44.88726712	    -27.15682496	      9.89682899	     81.52371057	     62.39854068	      8.63345095	     17.30054637	     46.94542657	    -24.49003659	     12.49771875	     75.98494936	     59.24902330	     12.09921840	     14.06250522
    104.70000000	      0.63322820	      7.50509261	     90.96277300	      0.40240344	      0.94191742	      0.29998067	      2.78739335	     -4.38466211	      0.27004277	      0.23544564	    -13.49004141	      5.38050141	      0.00000000	      0.00000000	      2.53256835	     -6.05607711	     -2.62982722	      0.20416729	    -11.69792417	      6.22700327	      0.00000000	      0.00000000	     -6.42989908	      0.10765710	     -0.12852637	    -11.94096559	      0.14318394	     -0.13655927	    -10.56368120	      0.26175747	     -0.13655927	     -7.34873166	      0.26175747	     -0.11246058	     -5.97080429	      0.21953435	     -0.10442768	     -3.67404434	      0.16676084	     -0.09639478	    -45.92812616	      1.21783861	     -0.71482512	      0.00000000	      0.00000000	     43.46834541	    -26.89763643	      9.54293986	     82.40846296	     64.69162586	      8.12597833	     17.77293593	     44.71118228	    -24.61237441	     11.31466490	     77.41012455	     61.59793895	     10.93106350	     14.12142063
    104.71000000	      0.66518255	      7.85338429	     90.89020055	      0.40204019	      0.94218921	      0.29843296	      2.31796327	     -4.37894977	      0.11401328	      0.23521062	    -13.47657568	      5.60662900	      0.00000000	      0.00000000	      1.96409552	     -6.07392369	     -2.86083212	      0.20193475	    -11.57000899	      6.57903124	      0.00000000	      0.00000000	     -6.40547369	      0.10757305	     -0.12925663	    -11.89560520	      0.14307215	     -0.13733517	    -10.52355273	      0.26155310	     -0.13733517	     -7.32081588	      0.26155310	     -0.11309956	     -5.94812287	      0.21936296	     -0.10502102	     -3.66008767	      0.16663065	     -0.09694248	    -45.75365804	      1.21688781	     -0.71888662	      0.00000000	      0.00000000	     41.82450954	    -26.98104645	      9.15937299	     83.34684940	     64.74699282	      8.10666311	     17.73003481	     42.85509169	    -24.57918125	     10.80045022	     78.22819151	     61.64922130	     10.85110138	     14.06072135
    104.72000000	      0.72836801	      8.29504974	     90.77406760	      0.40171746	      0.94261608	      0.29705274	      1.80896529	     -4.33252035	      0.14761261	      0.23687000	    -13.57165135	      5.73800579	      0.00000000	      0.00000000	      1.32722397	     -6.11879482	     -2.98196695	      0.20109218	    -11.52173309	      6.81366446	      0.00000000	      0.00000000	     -6.41351629	      0.10727889	     -0.12786588	    -11.91054110	      0.14268092	     -0.13585750	    -10.53676591	      0.26083789	     -0.13585750	     -7.33000777	      0.26083789	     -0.11188265	     -5.95559123	      0.21876311	     -0.10389103	     -3.66468321	      0.16617500	     -0.09589941	    -45.81110551	      1.21356022	     -0.71115168	      0.00000000	      0.00000000	     40.23238816	    -27.04836791	      8.69845652	     84.42644206	     64.87343159	      8.08014404	     17.67029370	     40.96024372	    -24.49655696	      9.99908199	     79.26360191	     61.77515336	     10.73734689	     13.94087467
    104.73000000	      0.78772973	      8.71087319	     90.61673162	      0.40138990	      0.94294977	      0.29573135	      1.31884445	     -4.30397483	      0.14947953	      0.23753172	    -13.60956489	      5.87471526	      0.00000000	      0.00000000	      0.68897023	     -6.15983369	     -3.19573190	      0.19931171	    -11.41971998	      7.05456804	      0.00000000	      0.00000000	     -6.41152790	      0.10505347	     -0.12554153	    -11.90684847	      0.13972111	     -0.13338787	    -10.53349919	      0.25542700	     -0.13338787	     -7.32773524	      0.25542700	     -0.10984884	     -5.95374481	      0.21422503	     -0.10200249	     -3.66354704	      0.16272782	     -0.09415614	    -45.79690266	      1.18838583	     -0.69822431	      0.00000000	      0.00000000	     38.75806160	    -27.14203120	      8.44640317	     85.29375225	     65.04237407	      8.05635721	     17.63110044	     39.12187362	    -24.43989722	      9.33870572	     80.09520320	     61.94210303	     10.62334240	     13.82195102
    104.74000000	      0.82372865	      9.12190373	     90.42512128	      0.40106911	      0.94328628	      0.29455418	      0.83669480	     -4.30419535	      0.21269527	      0.23801770	    -13.63740947	      6.00242810	      0.00000000	      0.00000000	      0.06531640	     -6.16241115	     -3.40616653	      0.19756113	    -11.31941900	      7.26978377	      0.00000000	      0.00000000	     -6.41375531	      0.09958894	     -0.11995890	    -11.91098498	      0.13245328	     -0.12745633	    -10.53715859	      0.24214054	     -0.12745633	     -7.33028094	      0.24214054	     -0.10496403	     -5.95581318	      0.20308176	     -0.09746660	     -3.66481978	      0.15426326	     -0.08996917	    -45.81281277	      1.12656996	     -0.66717540	      0.00000000	      0.00000000	     37.35485194	    -27.24229720	      8.27667479	     86.05319165	     65.23087603	      8.03249233	     17.59384351	     37.34465883	    -24.38439312	      8.73185043	     80.83248479	     62.11987289	     10.51506694	     13.69014325
    104.75000000	      0.83870525	      9.53219257	     90.23232038	      0.40077517	      0.94357721	      0.29353506	      0.34945218	     -4.32020951	      0.33383708	      0.23781596	    -13.62585103	      6.13145109	      0.00000000	      0.00000000	     -0.56718342	     -6.14480993	     -3.63126692	      0.19573141	    -11.21458348	      7.44325964	      0.00000000	      0.00000000	     -6.42015040	      0.08646764	     -0.11998776	    -11.92286130	      0.11500196	     -0.12748699	    -10.54766509	      0.21023742	     -0.12748699	     -7.33758989	      0.21023742	     -0.10498929	     -5.96175166	      0.17632481	     -0.09749005	     -3.66847394	      0.13393837	     -0.08999082	    -45.85849227	      0.97813923	     -0.66733592	      0.00000000	      0.00000000	     35.98189146	    -27.33310012	      8.11398041	     86.79144459	     65.46601581	      8.00033626	     17.54606805	     35.62046855	    -24.34134737	      8.09583439	     81.58541252	     62.32761659	     10.40014433	     13.51929769
    104.76000000	      0.80825829	     10.00761464	     90.03911225	      0.40042114	      0.94402522	      0.29266181	     -0.24353414	     -4.39922783	      0.45467787	      0.23640915	    -13.54524650	      6.21221951	      0.00000000	      0.00000000	     -1.25762073	     -6.06672988	     -3.84544598	      0.19362619	    -11.09396368	      7.46070530	      0.00000000	      0.00000000	     -6.44925624	      0.06897951	     -0.14292436	    -11.97691376	      0.09174275	     -0.15185713	    -10.59548307	      0.16771679	     -0.15185713	     -7.37085496	      0.16771679	     -0.12505882	     -5.98877934	      0.14066302	     -0.11612604	     -3.68510501	      0.10684927	     -0.10719327	    -46.06639239	      0.78031005	     -0.79490242	      0.00000000	      0.00000000	     34.83991409	    -27.27462178	      8.05833828	     87.36161365	     66.23502580	      7.87070676	     17.43960504	     33.77979066	    -24.38220637	      7.36362670	     82.45920652	     62.96759504	     10.11287370	     13.06433477
